<mxfile host="Electron" agent="Mozilla/5.0 (Macintosh; Intel Mac OS X 10_15_7) AppleWebKit/537.36 (KHTML, like Gecko) draw.io/26.0.16 Chrome/132.0.6834.196 Electron/34.2.0 Safari/537.36" version="26.0.16">
  <diagram name="Страница — 1" id="P9h02bmT7UtKWJMdOFgq">
    <mxGraphModel dx="1360" dy="1952" grid="1" gridSize="10" guides="1" tooltips="1" connect="1" arrows="1" fold="1" page="1" pageScale="1" pageWidth="827" pageHeight="1169" math="0" shadow="0">
      <root>
        <mxCell id="0" />
        <mxCell id="1" parent="0" />
        <mxCell id="DK_QEsjdx6g3Oqf9MKA4-4" value="" style="ellipse;whiteSpace=wrap;html=1;aspect=fixed;strokeColor=light-dark(#525252,#FFFFFF);" vertex="1" parent="1">
          <mxGeometry x="110" y="66.88" width="586.25" height="586.25" as="geometry" />
        </mxCell>
        <mxCell id="DK_QEsjdx6g3Oqf9MKA4-3" value="" style="ellipse;whiteSpace=wrap;html=1;aspect=fixed;" vertex="1" parent="1">
          <mxGeometry x="200.62" y="157.5" width="405" height="405" as="geometry" />
        </mxCell>
        <mxCell id="DK_QEsjdx6g3Oqf9MKA4-2" value="" style="ellipse;whiteSpace=wrap;html=1;aspect=fixed;" vertex="1" parent="1">
          <mxGeometry x="278.12" y="235" width="250" height="250" as="geometry" />
        </mxCell>
        <mxCell id="DK_QEsjdx6g3Oqf9MKA4-1" value="" style="ellipse;whiteSpace=wrap;html=1;aspect=fixed;" vertex="1" parent="1">
          <mxGeometry x="330" y="290" width="150" height="150" as="geometry" />
        </mxCell>
        <mxCell id="DK_QEsjdx6g3Oqf9MKA4-5" value="" style="endArrow=none;html=1;rounded=0;strokeColor=light-dark(#808080,#FFFFFF);" edge="1" parent="1">
          <mxGeometry width="50" height="50" relative="1" as="geometry">
            <mxPoint x="400" y="730" as="sourcePoint" />
            <mxPoint x="400" as="targetPoint" />
          </mxGeometry>
        </mxCell>
        <mxCell id="DK_QEsjdx6g3Oqf9MKA4-8" value="ADOPT" style="text;html=1;align=center;verticalAlign=middle;whiteSpace=wrap;rounded=0;" vertex="1" parent="1">
          <mxGeometry x="370" y="320" width="20" height="20" as="geometry" />
        </mxCell>
        <mxCell id="DK_QEsjdx6g3Oqf9MKA4-10" value="TRIAL" style="text;html=1;align=center;verticalAlign=middle;whiteSpace=wrap;rounded=0;" vertex="1" parent="1">
          <mxGeometry x="330" y="260" width="50" height="20" as="geometry" />
        </mxCell>
        <mxCell id="DK_QEsjdx6g3Oqf9MKA4-13" value="ASSET" style="text;html=1;align=center;verticalAlign=middle;whiteSpace=wrap;rounded=0;" vertex="1" parent="1">
          <mxGeometry x="300" y="180" width="50" height="20" as="geometry" />
        </mxCell>
        <mxCell id="DK_QEsjdx6g3Oqf9MKA4-14" value="HOLD" style="text;html=1;align=center;verticalAlign=middle;whiteSpace=wrap;rounded=0;" vertex="1" parent="1">
          <mxGeometry x="260" y="100" width="50" height="20" as="geometry" />
        </mxCell>
        <mxCell id="DK_QEsjdx6g3Oqf9MKA4-15" value="&lt;div&gt;Технологии:&lt;/div&gt;&lt;div&gt;1. DWH на базе Microsoft SQL&lt;/div&gt;&lt;div&gt;2. Шина на базе Apache camel&lt;/div&gt;&lt;div&gt;3. Power BI&lt;/div&gt;&lt;div&gt;4. Power Builder&lt;/div&gt;&lt;div&gt;5. Nessie&lt;/div&gt;&lt;div&gt;6. Apache iceberg&lt;/div&gt;&lt;div&gt;7.MiniO&lt;/div&gt;" style="text;html=1;align=center;verticalAlign=middle;whiteSpace=wrap;rounded=0;" vertex="1" parent="1">
          <mxGeometry y="10" width="190" height="90" as="geometry" />
        </mxCell>
        <mxCell id="DK_QEsjdx6g3Oqf9MKA4-16" value="Методологии:&lt;div&gt;8. Микросервисная архитектура&lt;/div&gt;&lt;div&gt;9. Data mesh&lt;/div&gt;&lt;div&gt;10. Data lakehouse&lt;/div&gt;" style="text;html=1;align=center;verticalAlign=middle;whiteSpace=wrap;rounded=0;" vertex="1" parent="1">
          <mxGeometry x="660" y="10" width="160" height="110" as="geometry" />
        </mxCell>
        <mxCell id="DK_QEsjdx6g3Oqf9MKA4-19" value="1" style="ellipse;whiteSpace=wrap;html=1;aspect=fixed;fillColor=light-dark(#FF5151,var(--ge-dark-color, #121212));" vertex="1" parent="1">
          <mxGeometry x="130" y="330" width="30" height="30" as="geometry" />
        </mxCell>
        <mxCell id="DK_QEsjdx6g3Oqf9MKA4-22" value="8" style="ellipse;whiteSpace=wrap;html=1;aspect=fixed;fillColor=light-dark(#FAFF7A,var(--ge-dark-color, #121212));" vertex="1" parent="1">
          <mxGeometry x="414" y="330" width="30" height="30" as="geometry" />
        </mxCell>
        <mxCell id="DK_QEsjdx6g3Oqf9MKA4-23" value="9" style="ellipse;whiteSpace=wrap;html=1;aspect=fixed;fillColor=light-dark(#FAFF7A,var(--ge-dark-color, #121212));" vertex="1" parent="1">
          <mxGeometry x="528.12" y="270" width="30" height="30" as="geometry" />
        </mxCell>
        <mxCell id="DK_QEsjdx6g3Oqf9MKA4-27" value="2" style="ellipse;whiteSpace=wrap;html=1;aspect=fixed;fillColor=light-dark(#FF5151,var(--ge-dark-color, #121212));" vertex="1" parent="1">
          <mxGeometry x="130" y="380" width="30" height="30" as="geometry" />
        </mxCell>
        <mxCell id="DK_QEsjdx6g3Oqf9MKA4-28" value="3" style="ellipse;whiteSpace=wrap;html=1;aspect=fixed;fillColor=light-dark(#FF5151,var(--ge-dark-color, #121212));" vertex="1" parent="1">
          <mxGeometry x="360" y="340" width="30" height="30" as="geometry" />
        </mxCell>
        <mxCell id="DK_QEsjdx6g3Oqf9MKA4-29" value="4" style="ellipse;whiteSpace=wrap;html=1;aspect=fixed;fillColor=light-dark(#FF5151,var(--ge-dark-color, #121212));" vertex="1" parent="1">
          <mxGeometry x="360" y="380" width="30" height="30" as="geometry" />
        </mxCell>
        <mxCell id="DK_QEsjdx6g3Oqf9MKA4-30" value="5" style="ellipse;whiteSpace=wrap;html=1;aspect=fixed;fillColor=light-dark(#FF5151,var(--ge-dark-color, #121212));" vertex="1" parent="1">
          <mxGeometry x="290" y="315" width="30" height="30" as="geometry" />
        </mxCell>
        <mxCell id="DK_QEsjdx6g3Oqf9MKA4-31" value="6" style="ellipse;whiteSpace=wrap;html=1;aspect=fixed;fillColor=light-dark(#FF5151,var(--ge-dark-color, #121212));" vertex="1" parent="1">
          <mxGeometry x="290" y="350" width="30" height="30" as="geometry" />
        </mxCell>
        <mxCell id="DK_QEsjdx6g3Oqf9MKA4-32" value="7" style="ellipse;whiteSpace=wrap;html=1;aspect=fixed;fillColor=light-dark(#FF5151,var(--ge-dark-color, #121212));" vertex="1" parent="1">
          <mxGeometry x="300" y="390" width="30" height="30" as="geometry" />
        </mxCell>
        <mxCell id="DK_QEsjdx6g3Oqf9MKA4-35" value="10" style="ellipse;whiteSpace=wrap;html=1;aspect=fixed;fillColor=light-dark(#FAFF7A,var(--ge-dark-color, #121212));" vertex="1" parent="1">
          <mxGeometry x="480" y="310" width="30" height="30" as="geometry" />
        </mxCell>
      </root>
    </mxGraphModel>
  </diagram>
</mxfile>
